<mxfile host="app.diagrams.net" modified="2024-03-28T09:10:25.984Z" agent="Mozilla/5.0 (Windows NT 10.0; Win64; x64) AppleWebKit/537.36 (KHTML, like Gecko) Chrome/123.0.0.0 Safari/537.36" etag="Kwcb7F3iK_JIUeXphcT9" version="24.0.7" type="device">
  <diagram name="Page-1" id="c4acf3e9-155e-7222-9cf6-157b1a14988f">
    <mxGraphModel dx="880" dy="434" grid="1" gridSize="10" guides="1" tooltips="1" connect="1" arrows="1" fold="1" page="1" pageScale="1" pageWidth="850" pageHeight="1100" background="none" math="0" shadow="0">
      <root>
        <mxCell id="0" />
        <mxCell id="1" parent="0" />
        <mxCell id="s8ZxVB_ENsMhfGV0gNtA-8" value="&lt;div style=&quot;box-sizing:border-box;width:100%;background:#e4e4e4;padding:2px;&quot;&gt;Root&lt;/div&gt;&lt;table style=&quot;width:100%;font-size:1em;&quot; cellpadding=&quot;2&quot; cellspacing=&quot;0&quot;&gt;&lt;tbody&gt;&lt;tr&gt;&lt;td&gt;PK&lt;/td&gt;&lt;td&gt;id_usuario&lt;/td&gt;&lt;/tr&gt;&lt;tr&gt;&lt;td&gt;Varchar&lt;br&gt;&lt;/td&gt;&lt;td&gt;user&lt;/td&gt;&lt;/tr&gt;&lt;tr&gt;&lt;td&gt;Varchar&lt;/td&gt;&lt;td&gt;password&lt;span style=&quot;color: rgba(0, 0, 0, 0); font-family: monospace; font-size: 0px; text-wrap: nowrap;&quot;&gt;%3CmxGraphModel%3E%3Croot%3E%3CmxCell%20id%3D%220%22%2F%3E%3CmxCell%20id%3D%221%22%20parent%3D%220%22%2F%3E%3CmxCell%20id%3D%222%22%20value%3D%22Administrador%22%20style%3D%22swimlane%3BfontStyle%3D0%3BchildLayout%3DstackLayout%3Bhorizontal%3D1%3BstartSize%3D30%3BhorizontalStack%3D0%3BresizeParent%3D1%3BresizeParentMax%3D0%3BresizeLast%3D0%3Bcollapsible%3D1%3BmarginBottom%3D0%3BwhiteSpace%3Dwrap%3Bhtml%3D1%3B%22%20vertex%3D%221%22%20parent%3D%221%22%3E%3CmxGeometry%20x%3D%22140%22%20y%3D%2240%22%20width%3D%22130%22%20height%3D%22110%22%20as%3D%22geometry%22%2F%3E%3C%2FmxCell%3E%3CmxCell%20id%3D%223%22%20value%3D%22id_usuario%26amp%3Bnbsp%3B%20pk%26lt%3Bdiv%26gt%3Busuario%20varchar(40)%26lt%3B%2Fdiv%26gt%3B%26lt%3Bdiv%26gt%3Bpassword%20varchar(20)%26lt%3B%2Fdiv%26gt%3B%26lt%3Bdiv%26gt%3B%26lt%3Bbr%26gt%3B%26lt%3Bdiv%26gt%3B%26amp%3Bnbsp%3B%26lt%3B%2Fdiv%26gt%3B%26lt%3B%2Fdiv%26gt%3B%22%20style%3D%22text%3BstrokeColor%3Dnone%3BfillColor%3Dnone%3Balign%3Dleft%3BverticalAlign%3Dmiddle%3BspacingLeft%3D4%3BspacingRight%3D4%3Boverflow%3Dhidden%3Bpoints%3D%5B%5B0%2C0.5%5D%2C%5B1%2C0.5%5D%5D%3BportConstraint%3Deastwest%3Brotatable%3D0%3BwhiteSpace%3Dwrap%3Bhtml%3D1%3B%22%20vertex%3D%221%22%20parent%3D%222%22%3E%3CmxGeometry%20y%3D%2230%22%20width%3D%22130%22%20height%3D%2280%22%20as%3D%22geometry%22%2F%3E%3C%2FmxCell%3E%3C%2Froot%3E%3C%2FmxGraphModel%3E&lt;/span&gt;&lt;br&gt;&lt;/td&gt;&lt;/tr&gt;&lt;/tbody&gt;&lt;/table&gt;" style="verticalAlign=top;align=left;overflow=fill;html=1;whiteSpace=wrap;" vertex="1" parent="1">
          <mxGeometry x="110" y="40" width="140" height="110" as="geometry" />
        </mxCell>
        <mxCell id="s8ZxVB_ENsMhfGV0gNtA-9" value="&lt;div style=&quot;box-sizing:border-box;width:100%;background:#e4e4e4;padding:2px;&quot;&gt;Platillo&lt;/div&gt;&lt;table style=&quot;text-align: justify; font-size: 1em; width: 140px;&quot; cellpadding=&quot;2&quot; cellspacing=&quot;0&quot;&gt;&lt;tbody&gt;&lt;tr&gt;&lt;td style=&quot;text-align: justify;&quot;&gt;&lt;table style=&quot;font-size: 1em; text-align: left; width: 140px;&quot; cellpadding=&quot;2&quot; cellspacing=&quot;0&quot;&gt;&lt;tbody&gt;&lt;tr&gt;&lt;td&gt;PK&lt;/td&gt;&lt;td&gt;id_usuario&lt;/td&gt;&lt;/tr&gt;&lt;tr&gt;&lt;td&gt;Varchar&lt;br&gt;&lt;/td&gt;&lt;td&gt;nombre&lt;/td&gt;&lt;/tr&gt;&lt;tr&gt;&lt;td&gt;Varchar&lt;/td&gt;&lt;td&gt;precio&lt;/td&gt;&lt;/tr&gt;&lt;tr&gt;&lt;td&gt;PK&lt;/td&gt;&lt;td&gt;clasificacion&lt;/td&gt;&lt;/tr&gt;&lt;tr&gt;&lt;td&gt;PK2&lt;/td&gt;&lt;td&gt;tipo&lt;/td&gt;&lt;/tr&gt;&lt;/tbody&gt;&lt;/table&gt;&lt;/td&gt;&lt;td style=&quot;text-align: justify;&quot;&gt;&lt;/td&gt;&lt;/tr&gt;&lt;tr&gt;&lt;td&gt;&lt;br&gt;&lt;/td&gt;&lt;td&gt;&lt;br&gt;&lt;/td&gt;&lt;/tr&gt;&lt;/tbody&gt;&lt;/table&gt;&lt;br&gt;&lt;br&gt;&lt;table style=&quot;text-align: justify; font-size: 1em; width: 140px;&quot; cellpadding=&quot;2&quot; cellspacing=&quot;0&quot;&gt;&lt;tbody&gt;&lt;/tbody&gt;&lt;/table&gt;" style="verticalAlign=top;align=left;overflow=fill;html=1;whiteSpace=wrap;" vertex="1" parent="1">
          <mxGeometry x="110" y="200" width="140" height="140" as="geometry" />
        </mxCell>
        <mxCell id="s8ZxVB_ENsMhfGV0gNtA-10" value="&lt;div style=&quot;box-sizing:border-box;width:100%;background:#e4e4e4;padding:2px;&quot;&gt;P_entradas&lt;/div&gt;&lt;table style=&quot;width:100%;font-size:1em;&quot; cellpadding=&quot;2&quot; cellspacing=&quot;0&quot;&gt;&lt;tbody&gt;&lt;tr&gt;&lt;td&gt;PK&lt;/td&gt;&lt;td&gt;id_entrada&lt;/td&gt;&lt;/tr&gt;&lt;tr&gt;&lt;td&gt;varchar&lt;/td&gt;&lt;td&gt;nombre&lt;/td&gt;&lt;/tr&gt;&lt;tr&gt;&lt;td&gt;&lt;br&gt;&lt;/td&gt;&lt;td&gt;&lt;span style=&quot;color: rgba(0, 0, 0, 0); font-family: monospace; font-size: 0px; text-wrap: nowrap;&quot;&gt;%3CmxGraphModel%3E%3Croot%3E%3CmxCell%20id%3D%220%22%2F%3E%3CmxCell%20id%3D%221%22%20parent%3D%220%22%2F%3E%3CmxCell%20id%3D%222%22%20value%3D%22Administrador%22%20style%3D%22swimlane%3BfontStyle%3D0%3BchildLayout%3DstackLayout%3Bhorizontal%3D1%3BstartSize%3D30%3BhorizontalStack%3D0%3BresizeParent%3D1%3BresizeParentMax%3D0%3BresizeLast%3D0%3Bcollapsible%3D1%3BmarginBottom%3D0%3BwhiteSpace%3Dwrap%3Bhtml%3D1%3B%22%20vertex%3D%221%22%20parent%3D%221%22%3E%3CmxGeometry%20x%3D%22140%22%20y%3D%2240%22%20width%3D%22130%22%20height%3D%22110%22%20as%3D%22geometry%22%2F%3E%3C%2FmxCell%3E%3CmxCell%20id%3D%223%22%20value%3D%22id_usuario%26amp%3Bnbsp%3B%20pk%26lt%3Bdiv%26gt%3Busuario%20varchar(40)%26lt%3B%2Fdiv%26gt%3B%26lt%3Bdiv%26gt%3Bpassword%20varchar(20)%26lt%3B%2Fdiv%26gt%3B%26lt%3Bdiv%26gt%3B%26lt%3Bbr%26gt%3B%26lt%3Bdiv%26gt%3B%26amp%3Bnbsp%3B%26lt%3B%2Fdiv%26gt%3B%26lt%3B%2Fdiv%26gt%3B%22%20style%3D%22text%3BstrokeColor%3Dnone%3BfillColor%3Dnone%3Balign%3Dleft%3BverticalAlign%3Dmiddle%3BspacingLeft%3D4%3BspacingRight%3D4%3Boverflow%3Dhidden%3Bpoints%3D%5B%5B0%2C0.5%5D%2C%5B1%2C0.5%5D%5D%3BportConstraint%3Deastwest%3Brotatable%3D0%3BwhiteSpace%3Dwrap%3Bhtml%3D1%3B%22%20vertex%3D%221%22%20parent%3D%222%22%3E%3CmxGeometry%20y%3D%2230%22%20width%3D%22130%22%20height%3D%2280%22%20as%3D%22geometry%22%2F%3E%3C%2FmxCell%3E%3C%2Froot%3E%3C%2FmxGraphModel%3E&lt;/span&gt;&lt;br&gt;&lt;/td&gt;&lt;/tr&gt;&lt;/tbody&gt;&lt;/table&gt;" style="verticalAlign=top;align=left;overflow=fill;html=1;whiteSpace=wrap;" vertex="1" parent="1">
          <mxGeometry x="630" y="40" width="130" height="70" as="geometry" />
        </mxCell>
        <mxCell id="s8ZxVB_ENsMhfGV0gNtA-11" value="&lt;div style=&quot;box-sizing:border-box;width:100%;background:#e4e4e4;padding:2px;&quot;&gt;S_entradas&lt;/div&gt;&lt;table style=&quot;width:100%;font-size:1em;&quot; cellpadding=&quot;2&quot; cellspacing=&quot;0&quot;&gt;&lt;tbody&gt;&lt;tr&gt;&lt;td&gt;PK&lt;/td&gt;&lt;td&gt;id_entrada&lt;/td&gt;&lt;/tr&gt;&lt;tr&gt;&lt;td&gt;varchar&lt;/td&gt;&lt;td&gt;nombre&lt;/td&gt;&lt;/tr&gt;&lt;tr&gt;&lt;td&gt;&lt;br&gt;&lt;/td&gt;&lt;td&gt;&lt;span style=&quot;color: rgba(0, 0, 0, 0); font-family: monospace; font-size: 0px; text-wrap: nowrap;&quot;&gt;%3CmxGraphModel%3E%3Croot%3E%3CmxCell%20id%3D%220%22%2F%3E%3CmxCell%20id%3D%221%22%20parent%3D%220%22%2F%3E%3CmxCell%20id%3D%222%22%20value%3D%22Administrador%22%20style%3D%22swimlane%3BfontStyle%3D0%3BchildLayout%3DstackLayout%3Bhorizontal%3D1%3BstartSize%3D30%3BhorizontalStack%3D0%3BresizeParent%3D1%3BresizeParentMax%3D0%3BresizeLast%3D0%3Bcollapsible%3D1%3BmarginBottom%3D0%3BwhiteSpace%3Dwrap%3Bhtml%3D1%3B%22%20vertex%3D%221%22%20parent%3D%221%22%3E%3CmxGeometry%20x%3D%22140%22%20y%3D%2240%22%20width%3D%22130%22%20height%3D%22110%22%20as%3D%22geometry%22%2F%3E%3C%2FmxCell%3E%3CmxCell%20id%3D%223%22%20value%3D%22id_usuario%26amp%3Bnbsp%3B%20pk%26lt%3Bdiv%26gt%3Busuario%20varchar(40)%26lt%3B%2Fdiv%26gt%3B%26lt%3Bdiv%26gt%3Bpassword%20varchar(20)%26lt%3B%2Fdiv%26gt%3B%26lt%3Bdiv%26gt%3B%26lt%3Bbr%26gt%3B%26lt%3Bdiv%26gt%3B%26amp%3Bnbsp%3B%26lt%3B%2Fdiv%26gt%3B%26lt%3B%2Fdiv%26gt%3B%22%20style%3D%22text%3BstrokeColor%3Dnone%3BfillColor%3Dnone%3Balign%3Dleft%3BverticalAlign%3Dmiddle%3BspacingLeft%3D4%3BspacingRight%3D4%3Boverflow%3Dhidden%3Bpoints%3D%5B%5B0%2C0.5%5D%2C%5B1%2C0.5%5D%5D%3BportConstraint%3Deastwest%3Brotatable%3D0%3BwhiteSpace%3Dwrap%3Bhtml%3D1%3B%22%20vertex%3D%221%22%20parent%3D%222%22%3E%3CmxGeometry%20y%3D%2230%22%20width%3D%22130%22%20height%3D%2280%22%20as%3D%22geometry%22%2F%3E%3C%2FmxCell%3E%3C%2Froot%3E%3C%2FmxGraphModel%3E&lt;/span&gt;&lt;br&gt;&lt;/td&gt;&lt;/tr&gt;&lt;/tbody&gt;&lt;/table&gt;" style="verticalAlign=top;align=left;overflow=fill;html=1;whiteSpace=wrap;" vertex="1" parent="1">
          <mxGeometry x="630" y="130" width="130" height="70" as="geometry" />
        </mxCell>
        <mxCell id="s8ZxVB_ENsMhfGV0gNtA-12" value="&lt;div style=&quot;box-sizing:border-box;width:100%;background:#e4e4e4;padding:2px;&quot;&gt;Fuerte&lt;/div&gt;&lt;table style=&quot;width:100%;font-size:1em;&quot; cellpadding=&quot;2&quot; cellspacing=&quot;0&quot;&gt;&lt;tbody&gt;&lt;tr&gt;&lt;td&gt;PK&lt;/td&gt;&lt;td&gt;id_fuerte&lt;/td&gt;&lt;/tr&gt;&lt;tr&gt;&lt;td&gt;varchar&lt;/td&gt;&lt;td&gt;nombre&lt;/td&gt;&lt;/tr&gt;&lt;tr&gt;&lt;td&gt;&lt;br&gt;&lt;/td&gt;&lt;td&gt;&lt;span style=&quot;color: rgba(0, 0, 0, 0); font-family: monospace; font-size: 0px; text-wrap: nowrap;&quot;&gt;%3CmxGraphModel%3E%3Croot%3E%3CmxCell%20id%3D%220%22%2F%3E%3CmxCell%20id%3D%221%22%20parent%3D%220%22%2F%3E%3CmxCell%20id%3D%222%22%20value%3D%22Administrador%22%20style%3D%22swimlane%3BfontStyle%3D0%3BchildLayout%3DstackLayout%3Bhorizontal%3D1%3BstartSize%3D30%3BhorizontalStack%3D0%3BresizeParent%3D1%3BresizeParentMax%3D0%3BresizeLast%3D0%3Bcollapsible%3D1%3BmarginBottom%3D0%3BwhiteSpace%3Dwrap%3Bhtml%3D1%3B%22%20vertex%3D%221%22%20parent%3D%221%22%3E%3CmxGeometry%20x%3D%22140%22%20y%3D%2240%22%20width%3D%22130%22%20height%3D%22110%22%20as%3D%22geometry%22%2F%3E%3C%2FmxCell%3E%3CmxCell%20id%3D%223%22%20value%3D%22id_usuario%26amp%3Bnbsp%3B%20pk%26lt%3Bdiv%26gt%3Busuario%20varchar(40)%26lt%3B%2Fdiv%26gt%3B%26lt%3Bdiv%26gt%3Bpassword%20varchar(20)%26lt%3B%2Fdiv%26gt%3B%26lt%3Bdiv%26gt%3B%26lt%3Bbr%26gt%3B%26lt%3Bdiv%26gt%3B%26amp%3Bnbsp%3B%26lt%3B%2Fdiv%26gt%3B%26lt%3B%2Fdiv%26gt%3B%22%20style%3D%22text%3BstrokeColor%3Dnone%3BfillColor%3Dnone%3Balign%3Dleft%3BverticalAlign%3Dmiddle%3BspacingLeft%3D4%3BspacingRight%3D4%3Boverflow%3Dhidden%3Bpoints%3D%5B%5B0%2C0.5%5D%2C%5B1%2C0.5%5D%5D%3BportConstraint%3Deastwest%3Brotatable%3D0%3BwhiteSpace%3Dwrap%3Bhtml%3D1%3B%22%20vertex%3D%221%22%20parent%3D%222%22%3E%3CmxGeometry%20y%3D%2230%22%20width%3D%22130%22%20height%3D%2280%22%20as%3D%22geometry%22%2F%3E%3C%2FmxCell%3E%3C%2Froot%3E%3C%2FmxGraphModel%3E&lt;/span&gt;&lt;br&gt;&lt;/td&gt;&lt;/tr&gt;&lt;/tbody&gt;&lt;/table&gt;" style="verticalAlign=top;align=left;overflow=fill;html=1;whiteSpace=wrap;" vertex="1" parent="1">
          <mxGeometry x="630" y="230" width="130" height="70" as="geometry" />
        </mxCell>
        <mxCell id="s8ZxVB_ENsMhfGV0gNtA-13" value="&lt;div style=&quot;box-sizing:border-box;width:100%;background:#e4e4e4;padding:2px;&quot;&gt;Menu&lt;/div&gt;&lt;table style=&quot;text-align: justify; font-size: 1em; width: 140px;&quot; cellpadding=&quot;2&quot; cellspacing=&quot;0&quot;&gt;&lt;tbody&gt;&lt;tr&gt;&lt;td style=&quot;text-align: justify;&quot;&gt;&lt;table style=&quot;font-size: 1em; text-align: left; width: 140px;&quot; cellpadding=&quot;2&quot; cellspacing=&quot;0&quot;&gt;&lt;tbody&gt;&lt;tr&gt;&lt;td&gt;PK&lt;/td&gt;&lt;td&gt;id_menu&lt;/td&gt;&lt;/tr&gt;&lt;tr&gt;&lt;td&gt;Date&lt;/td&gt;&lt;td&gt;fecha&lt;/td&gt;&lt;/tr&gt;&lt;tr&gt;&lt;td&gt;Fk1&lt;/td&gt;&lt;td&gt;entrada11&lt;/td&gt;&lt;/tr&gt;&lt;tr&gt;&lt;td&gt;FK2&lt;/td&gt;&lt;td&gt;entrada12&lt;/td&gt;&lt;/tr&gt;&lt;tr&gt;&lt;td&gt;Fk3&lt;/td&gt;&lt;td&gt;entrada21&lt;/td&gt;&lt;/tr&gt;&lt;tr&gt;&lt;td&gt;FK4&lt;/td&gt;&lt;td&gt;entrada22&lt;/td&gt;&lt;/tr&gt;&lt;tr&gt;&lt;td&gt;FK5&lt;/td&gt;&lt;td&gt;fuerte1&lt;/td&gt;&lt;/tr&gt;&lt;tr&gt;&lt;td&gt;FK6&lt;/td&gt;&lt;td&gt;fuerte2&lt;/td&gt;&lt;/tr&gt;&lt;/tbody&gt;&lt;/table&gt;&lt;/td&gt;&lt;td style=&quot;text-align: justify;&quot;&gt;&lt;/td&gt;&lt;/tr&gt;&lt;/tbody&gt;&lt;/table&gt;&lt;br&gt;&lt;br&gt;&lt;table style=&quot;text-align: justify; font-size: 1em; width: 140px;&quot; cellpadding=&quot;2&quot; cellspacing=&quot;0&quot;&gt;&lt;tbody&gt;&lt;/tbody&gt;&lt;/table&gt;" style="verticalAlign=top;align=left;overflow=fill;html=1;whiteSpace=wrap;" vertex="1" parent="1">
          <mxGeometry x="350" y="40" width="130" height="180" as="geometry" />
        </mxCell>
        <mxCell id="s8ZxVB_ENsMhfGV0gNtA-15" style="edgeStyle=orthogonalEdgeStyle;rounded=0;orthogonalLoop=1;jettySize=auto;html=1;entryX=1;entryY=0.389;entryDx=0;entryDy=0;entryPerimeter=0;" edge="1" parent="1" source="s8ZxVB_ENsMhfGV0gNtA-10" target="s8ZxVB_ENsMhfGV0gNtA-13">
          <mxGeometry relative="1" as="geometry" />
        </mxCell>
        <mxCell id="s8ZxVB_ENsMhfGV0gNtA-16" style="edgeStyle=orthogonalEdgeStyle;rounded=0;orthogonalLoop=1;jettySize=auto;html=1;entryX=1;entryY=0.467;entryDx=0;entryDy=0;entryPerimeter=0;" edge="1" parent="1" source="s8ZxVB_ENsMhfGV0gNtA-10" target="s8ZxVB_ENsMhfGV0gNtA-13">
          <mxGeometry relative="1" as="geometry" />
        </mxCell>
        <mxCell id="s8ZxVB_ENsMhfGV0gNtA-17" style="edgeStyle=orthogonalEdgeStyle;rounded=0;orthogonalLoop=1;jettySize=auto;html=1;entryX=1;entryY=0.556;entryDx=0;entryDy=0;entryPerimeter=0;" edge="1" parent="1" source="s8ZxVB_ENsMhfGV0gNtA-11" target="s8ZxVB_ENsMhfGV0gNtA-13">
          <mxGeometry relative="1" as="geometry" />
        </mxCell>
        <mxCell id="s8ZxVB_ENsMhfGV0gNtA-18" style="edgeStyle=orthogonalEdgeStyle;rounded=0;orthogonalLoop=1;jettySize=auto;html=1;" edge="1" parent="1" source="s8ZxVB_ENsMhfGV0gNtA-11">
          <mxGeometry relative="1" as="geometry">
            <mxPoint x="480" y="158" as="targetPoint" />
          </mxGeometry>
        </mxCell>
        <mxCell id="s8ZxVB_ENsMhfGV0gNtA-19" style="edgeStyle=orthogonalEdgeStyle;rounded=0;orthogonalLoop=1;jettySize=auto;html=1;entryX=0.992;entryY=0.8;entryDx=0;entryDy=0;entryPerimeter=0;" edge="1" parent="1" source="s8ZxVB_ENsMhfGV0gNtA-12" target="s8ZxVB_ENsMhfGV0gNtA-13">
          <mxGeometry relative="1" as="geometry" />
        </mxCell>
        <mxCell id="s8ZxVB_ENsMhfGV0gNtA-20" style="edgeStyle=orthogonalEdgeStyle;rounded=0;orthogonalLoop=1;jettySize=auto;html=1;entryX=1.008;entryY=0.889;entryDx=0;entryDy=0;entryPerimeter=0;" edge="1" parent="1" source="s8ZxVB_ENsMhfGV0gNtA-12" target="s8ZxVB_ENsMhfGV0gNtA-13">
          <mxGeometry relative="1" as="geometry" />
        </mxCell>
        <mxCell id="s8ZxVB_ENsMhfGV0gNtA-21" value="&lt;div style=&quot;box-sizing:border-box;width:100%;background:#e4e4e4;padding:2px;&quot;&gt;Bebida&lt;/div&gt;&lt;table style=&quot;text-align: justify; font-size: 1em; width: 140px;&quot; cellpadding=&quot;2&quot; cellspacing=&quot;0&quot;&gt;&lt;tbody&gt;&lt;tr&gt;&lt;td style=&quot;text-align: justify;&quot;&gt;&lt;table style=&quot;font-size: 1em; text-align: left; width: 140px;&quot; cellpadding=&quot;2&quot; cellspacing=&quot;0&quot;&gt;&lt;tbody&gt;&lt;tr&gt;&lt;td&gt;PK&lt;/td&gt;&lt;td&gt;id_bebida&lt;/td&gt;&lt;/tr&gt;&lt;tr&gt;&lt;td&gt;Varchar&lt;br&gt;&lt;/td&gt;&lt;td&gt;nombre&lt;/td&gt;&lt;/tr&gt;&lt;tr&gt;&lt;td&gt;Varchar&lt;/td&gt;&lt;td&gt;precio&lt;/td&gt;&lt;/tr&gt;&lt;tr&gt;&lt;td&gt;pk&lt;/td&gt;&lt;td&gt;id_tipo&lt;/td&gt;&lt;/tr&gt;&lt;tr&gt;&lt;td&gt;&lt;br&gt;&lt;/td&gt;&lt;td&gt;&lt;br&gt;&lt;/td&gt;&lt;/tr&gt;&lt;/tbody&gt;&lt;/table&gt;&lt;/td&gt;&lt;td style=&quot;text-align: justify;&quot;&gt;&lt;/td&gt;&lt;/tr&gt;&lt;/tbody&gt;&lt;/table&gt;&lt;br&gt;&lt;br&gt;&lt;table style=&quot;text-align: justify; font-size: 1em; width: 140px;&quot; cellpadding=&quot;2&quot; cellspacing=&quot;0&quot;&gt;&lt;tbody&gt;&lt;/tbody&gt;&lt;/table&gt;" style="verticalAlign=top;align=left;overflow=fill;html=1;whiteSpace=wrap;" vertex="1" parent="1">
          <mxGeometry x="100" y="370" width="130" height="130" as="geometry" />
        </mxCell>
        <mxCell id="s8ZxVB_ENsMhfGV0gNtA-22" value="&lt;div style=&quot;box-sizing:border-box;width:100%;background:#e4e4e4;padding:2px;&quot;&gt;Clasificacion&lt;/div&gt;&lt;table style=&quot;text-align: justify; font-size: 1em; width: 140px;&quot; cellpadding=&quot;2&quot; cellspacing=&quot;0&quot;&gt;&lt;tbody&gt;&lt;tr&gt;&lt;td style=&quot;text-align: justify;&quot;&gt;&lt;table style=&quot;font-size: 1em; text-align: left; width: 140px;&quot; cellpadding=&quot;2&quot; cellspacing=&quot;0&quot;&gt;&lt;tbody&gt;&lt;tr&gt;&lt;td&gt;PK&lt;/td&gt;&lt;td&gt;id_clasificacion&lt;/td&gt;&lt;/tr&gt;&lt;tr&gt;&lt;td&gt;Varchar&lt;br&gt;&lt;/td&gt;&lt;td&gt;nombre&lt;/td&gt;&lt;/tr&gt;&lt;tr&gt;&lt;td&gt;&lt;br&gt;&lt;/td&gt;&lt;td&gt;&lt;br&gt;&lt;/td&gt;&lt;/tr&gt;&lt;tr&gt;&lt;td&gt;&lt;br&gt;&lt;/td&gt;&lt;td&gt;&lt;br&gt;&lt;/td&gt;&lt;/tr&gt;&lt;/tbody&gt;&lt;/table&gt;&lt;/td&gt;&lt;td style=&quot;text-align: justify;&quot;&gt;&lt;/td&gt;&lt;/tr&gt;&lt;/tbody&gt;&lt;/table&gt;&lt;br&gt;&lt;br&gt;&lt;table style=&quot;text-align: justify; font-size: 1em; width: 140px;&quot; cellpadding=&quot;2&quot; cellspacing=&quot;0&quot;&gt;&lt;tbody&gt;&lt;/tbody&gt;&lt;/table&gt;" style="verticalAlign=top;align=left;overflow=fill;html=1;whiteSpace=wrap;" vertex="1" parent="1">
          <mxGeometry x="345" y="250" width="160" height="70" as="geometry" />
        </mxCell>
        <mxCell id="s8ZxVB_ENsMhfGV0gNtA-23" style="edgeStyle=orthogonalEdgeStyle;rounded=0;orthogonalLoop=1;jettySize=auto;html=1;entryX=0.992;entryY=0.669;entryDx=0;entryDy=0;entryPerimeter=0;" edge="1" parent="1" source="s8ZxVB_ENsMhfGV0gNtA-22" target="s8ZxVB_ENsMhfGV0gNtA-9">
          <mxGeometry relative="1" as="geometry" />
        </mxCell>
        <mxCell id="s8ZxVB_ENsMhfGV0gNtA-27" style="edgeStyle=orthogonalEdgeStyle;rounded=0;orthogonalLoop=1;jettySize=auto;html=1;entryX=1;entryY=0.25;entryDx=0;entryDy=0;" edge="1" parent="1" source="s8ZxVB_ENsMhfGV0gNtA-24" target="s8ZxVB_ENsMhfGV0gNtA-21">
          <mxGeometry relative="1" as="geometry">
            <Array as="points">
              <mxPoint x="293" y="425" />
              <mxPoint x="293" y="460" />
              <mxPoint x="250" y="460" />
            </Array>
          </mxGeometry>
        </mxCell>
        <mxCell id="s8ZxVB_ENsMhfGV0gNtA-28" style="edgeStyle=orthogonalEdgeStyle;rounded=0;orthogonalLoop=1;jettySize=auto;html=1;entryX=1;entryY=0.75;entryDx=0;entryDy=0;" edge="1" parent="1" source="s8ZxVB_ENsMhfGV0gNtA-24" target="s8ZxVB_ENsMhfGV0gNtA-9">
          <mxGeometry relative="1" as="geometry" />
        </mxCell>
        <mxCell id="s8ZxVB_ENsMhfGV0gNtA-24" value="&lt;div style=&quot;box-sizing:border-box;width:100%;background:#e4e4e4;padding:2px;&quot;&gt;Tipo&lt;/div&gt;&lt;table style=&quot;text-align: justify; font-size: 1em; width: 140px;&quot; cellpadding=&quot;2&quot; cellspacing=&quot;0&quot;&gt;&lt;tbody&gt;&lt;tr&gt;&lt;td style=&quot;text-align: justify;&quot;&gt;&lt;table style=&quot;font-size: 1em; text-align: left; width: 140px;&quot; cellpadding=&quot;2&quot; cellspacing=&quot;0&quot;&gt;&lt;tbody&gt;&lt;tr&gt;&lt;td&gt;PK&lt;/td&gt;&lt;td&gt;id_tipo&lt;/td&gt;&lt;/tr&gt;&lt;tr&gt;&lt;td&gt;Varchar&lt;br&gt;&lt;/td&gt;&lt;td&gt;nombre&lt;/td&gt;&lt;/tr&gt;&lt;tr&gt;&lt;td&gt;&lt;br&gt;&lt;/td&gt;&lt;td&gt;&lt;br&gt;&lt;/td&gt;&lt;/tr&gt;&lt;tr&gt;&lt;td&gt;&lt;br&gt;&lt;/td&gt;&lt;td&gt;&lt;br&gt;&lt;/td&gt;&lt;/tr&gt;&lt;/tbody&gt;&lt;/table&gt;&lt;/td&gt;&lt;td style=&quot;text-align: justify;&quot;&gt;&lt;/td&gt;&lt;/tr&gt;&lt;/tbody&gt;&lt;/table&gt;&lt;br&gt;&lt;br&gt;&lt;table style=&quot;text-align: justify; font-size: 1em; width: 140px;&quot; cellpadding=&quot;2&quot; cellspacing=&quot;0&quot;&gt;&lt;tbody&gt;&lt;/tbody&gt;&lt;/table&gt;" style="verticalAlign=top;align=left;overflow=fill;html=1;whiteSpace=wrap;" vertex="1" parent="1">
          <mxGeometry x="345" y="370" width="160" height="70" as="geometry" />
        </mxCell>
        <mxCell id="s8ZxVB_ENsMhfGV0gNtA-35" style="edgeStyle=orthogonalEdgeStyle;rounded=0;orthogonalLoop=1;jettySize=auto;html=1;entryX=0;entryY=0.75;entryDx=0;entryDy=0;" edge="1" parent="1" source="s8ZxVB_ENsMhfGV0gNtA-29" target="s8ZxVB_ENsMhfGV0gNtA-31">
          <mxGeometry relative="1" as="geometry" />
        </mxCell>
        <mxCell id="s8ZxVB_ENsMhfGV0gNtA-29" value="&lt;div style=&quot;box-sizing:border-box;width:100%;background:#e4e4e4;padding:2px;&quot;&gt;Pedido&lt;/div&gt;&lt;table style=&quot;text-align: justify; font-size: 1em; width: 140px;&quot; cellpadding=&quot;2&quot; cellspacing=&quot;0&quot;&gt;&lt;tbody&gt;&lt;tr&gt;&lt;td style=&quot;text-align: justify;&quot;&gt;&lt;table style=&quot;font-size: 1em; text-align: left; width: 140px;&quot; cellpadding=&quot;2&quot; cellspacing=&quot;0&quot;&gt;&lt;tbody&gt;&lt;tr&gt;&lt;td&gt;PK&lt;/td&gt;&lt;td&gt;id_pedido&lt;/td&gt;&lt;/tr&gt;&lt;tr&gt;&lt;td&gt;date&lt;/td&gt;&lt;td&gt;fecha_pedido&lt;/td&gt;&lt;/tr&gt;&lt;tr&gt;&lt;td&gt;date&lt;/td&gt;&lt;td&gt;fecha_Entrega&lt;/td&gt;&lt;/tr&gt;&lt;tr&gt;&lt;td&gt;varchar&lt;/td&gt;&lt;td&gt;nombre_cliente&lt;/td&gt;&lt;/tr&gt;&lt;tr&gt;&lt;td&gt;int(10)&lt;/td&gt;&lt;td&gt;telefono&lt;/td&gt;&lt;/tr&gt;&lt;/tbody&gt;&lt;/table&gt;&lt;/td&gt;&lt;td style=&quot;text-align: justify;&quot;&gt;&lt;/td&gt;&lt;/tr&gt;&lt;/tbody&gt;&lt;/table&gt;&lt;br&gt;&lt;br&gt;&lt;table style=&quot;text-align: justify; font-size: 1em; width: 140px;&quot; cellpadding=&quot;2&quot; cellspacing=&quot;0&quot;&gt;&lt;tbody&gt;&lt;/tbody&gt;&lt;/table&gt;" style="verticalAlign=top;align=left;overflow=fill;html=1;whiteSpace=wrap;" vertex="1" parent="1">
          <mxGeometry x="40" y="600" width="160" height="190" as="geometry" />
        </mxCell>
        <mxCell id="s8ZxVB_ENsMhfGV0gNtA-33" style="edgeStyle=orthogonalEdgeStyle;rounded=0;orthogonalLoop=1;jettySize=auto;html=1;entryX=1;entryY=0.75;entryDx=0;entryDy=0;" edge="1" parent="1" source="s8ZxVB_ENsMhfGV0gNtA-30" target="s8ZxVB_ENsMhfGV0gNtA-32">
          <mxGeometry relative="1" as="geometry" />
        </mxCell>
        <mxCell id="s8ZxVB_ENsMhfGV0gNtA-30" value="&lt;div style=&quot;box-sizing:border-box;width:100%;background:#e4e4e4;padding:2px;&quot;&gt;Evento&lt;/div&gt;&lt;table style=&quot;text-align: justify; font-size: 1em; width: 140px;&quot; cellpadding=&quot;2&quot; cellspacing=&quot;0&quot;&gt;&lt;tbody&gt;&lt;tr&gt;&lt;td style=&quot;text-align: justify;&quot;&gt;&lt;table style=&quot;font-size: 1em; text-align: left; width: 140px;&quot; cellpadding=&quot;2&quot; cellspacing=&quot;0&quot;&gt;&lt;tbody&gt;&lt;tr&gt;&lt;td&gt;PK&lt;/td&gt;&lt;td&gt;id_clasificacion&lt;/td&gt;&lt;/tr&gt;&lt;tr&gt;&lt;td&gt;Varchar&lt;br&gt;&lt;/td&gt;&lt;td&gt;nombre&lt;/td&gt;&lt;/tr&gt;&lt;tr&gt;&lt;td&gt;date&lt;/td&gt;&lt;td&gt;fecha_inicio&lt;/td&gt;&lt;/tr&gt;&lt;tr&gt;&lt;td&gt;date&lt;/td&gt;&lt;td&gt;decha_fin&lt;/td&gt;&lt;/tr&gt;&lt;/tbody&gt;&lt;/table&gt;&lt;/td&gt;&lt;td style=&quot;text-align: justify;&quot;&gt;&lt;/td&gt;&lt;/tr&gt;&lt;/tbody&gt;&lt;/table&gt;&lt;br&gt;&lt;br&gt;&lt;table style=&quot;text-align: justify; font-size: 1em; width: 140px;&quot; cellpadding=&quot;2&quot; cellspacing=&quot;0&quot;&gt;&lt;tbody&gt;&lt;/tbody&gt;&lt;/table&gt;" style="verticalAlign=top;align=left;overflow=fill;html=1;whiteSpace=wrap;" vertex="1" parent="1">
          <mxGeometry x="640" y="700" width="160" height="90" as="geometry" />
        </mxCell>
        <mxCell id="s8ZxVB_ENsMhfGV0gNtA-31" value="&lt;div style=&quot;box-sizing:border-box;width:100%;background:#e4e4e4;padding:2px;&quot;&gt;Orden&lt;/div&gt;&lt;table style=&quot;text-align: justify; font-size: 1em; width: 140px;&quot; cellpadding=&quot;2&quot; cellspacing=&quot;0&quot;&gt;&lt;tbody&gt;&lt;tr&gt;&lt;td style=&quot;text-align: justify;&quot;&gt;&lt;table style=&quot;font-size: 1em; text-align: left; width: 140px;&quot; cellpadding=&quot;2&quot; cellspacing=&quot;0&quot;&gt;&lt;tbody&gt;&lt;tr&gt;&lt;td&gt;PK&lt;/td&gt;&lt;td&gt;id_orden&lt;/td&gt;&lt;/tr&gt;&lt;tr&gt;&lt;td&gt;fk&lt;/td&gt;&lt;td&gt;id_pedido&lt;/td&gt;&lt;/tr&gt;&lt;tr&gt;&lt;td&gt;id_producto&lt;/td&gt;&lt;td&gt;fecha_inicio&lt;/td&gt;&lt;/tr&gt;&lt;tr&gt;&lt;td&gt;&lt;br&gt;&lt;/td&gt;&lt;td&gt;&lt;br&gt;&lt;/td&gt;&lt;/tr&gt;&lt;/tbody&gt;&lt;/table&gt;&lt;/td&gt;&lt;td style=&quot;text-align: justify;&quot;&gt;&lt;/td&gt;&lt;/tr&gt;&lt;/tbody&gt;&lt;/table&gt;&lt;br&gt;&lt;br&gt;&lt;table style=&quot;text-align: justify; font-size: 1em; width: 140px;&quot; cellpadding=&quot;2&quot; cellspacing=&quot;0&quot;&gt;&lt;tbody&gt;&lt;/tbody&gt;&lt;/table&gt;" style="verticalAlign=top;align=left;overflow=fill;html=1;whiteSpace=wrap;" vertex="1" parent="1">
          <mxGeometry x="240" y="560" width="160" height="90" as="geometry" />
        </mxCell>
        <mxCell id="s8ZxVB_ENsMhfGV0gNtA-36" style="edgeStyle=orthogonalEdgeStyle;rounded=0;orthogonalLoop=1;jettySize=auto;html=1;entryX=1;entryY=0.5;entryDx=0;entryDy=0;" edge="1" parent="1" source="s8ZxVB_ENsMhfGV0gNtA-32" target="s8ZxVB_ENsMhfGV0gNtA-31">
          <mxGeometry relative="1" as="geometry" />
        </mxCell>
        <mxCell id="s8ZxVB_ENsMhfGV0gNtA-32" value="&lt;div style=&quot;box-sizing:border-box;width:100%;background:#e4e4e4;padding:2px;&quot;&gt;Producto&lt;/div&gt;&lt;table style=&quot;text-align: justify; font-size: 1em; width: 140px;&quot; cellpadding=&quot;2&quot; cellspacing=&quot;0&quot;&gt;&lt;tbody&gt;&lt;tr&gt;&lt;td style=&quot;text-align: justify;&quot;&gt;&lt;table style=&quot;font-size: 1em; text-align: left; width: 140px;&quot; cellpadding=&quot;2&quot; cellspacing=&quot;0&quot;&gt;&lt;tbody&gt;&lt;tr&gt;&lt;td&gt;PK&lt;/td&gt;&lt;td&gt;id_producto&lt;/td&gt;&lt;/tr&gt;&lt;tr&gt;&lt;td&gt;Varchar&lt;br&gt;&lt;/td&gt;&lt;td&gt;producto&lt;br&gt;&lt;/td&gt;&lt;/tr&gt;&lt;tr&gt;&lt;td&gt;FK&lt;/td&gt;&lt;td&gt;id_evento&lt;br&gt;&lt;/td&gt;&lt;/tr&gt;&lt;tr&gt;&lt;td&gt;float&lt;/td&gt;&lt;td&gt;cantidad&lt;/td&gt;&lt;/tr&gt;&lt;/tbody&gt;&lt;/table&gt;&lt;/td&gt;&lt;td style=&quot;text-align: justify;&quot;&gt;&lt;/td&gt;&lt;/tr&gt;&lt;/tbody&gt;&lt;/table&gt;&lt;br&gt;&lt;br&gt;&lt;table style=&quot;text-align: justify; font-size: 1em; width: 140px;&quot; cellpadding=&quot;2&quot; cellspacing=&quot;0&quot;&gt;&lt;tbody&gt;&lt;/tbody&gt;&lt;/table&gt;" style="verticalAlign=top;align=left;overflow=fill;html=1;whiteSpace=wrap;" vertex="1" parent="1">
          <mxGeometry x="425" y="700" width="165" height="100" as="geometry" />
        </mxCell>
      </root>
    </mxGraphModel>
  </diagram>
</mxfile>
